<?xml version="1.0" encoding="UTF-8" standalone="no"?>
<!DOCTYPE svg PUBLIC "-//W3C//DTD SVG 1.1//EN" "http://www.w3.org/Graphics/SVG/1.1/DTD/svg11.dtd">
<svg version="1.1" id="Layer_1" xmlns="http://www.w3.org/2000/svg" xmlns:xlink="http://www.w3.org/1999/xlink" x="0px" y="0px" width="64px" height="64px" 
	 viewBox="0 0 64 64" style="enable-background:new 0 0 64 64;" xml:space="preserve">
    <g transform="matrix(1.15152,0,0,1.15152,8.00107,0)">
        <g id="Livello_2">
            <g id="Livello_1-2">
                <path d="M29.8,11.7C25.9,7.9 22.2,4.2 21.1,0C20,4.2 16.3,7.9 12.4,11.7C6.6,17.5 0,24.1 0,34C-0.3,45.6 9,55.3 20.6,55.5C32.2,55.7 41.9,46.5 42.1,34.9L42.1,34C42.2,24.1 35.6,17.5 29.8,11.7ZM10.8,35.9C10.2,36.7 9.6,37.6 9.2,38.5C9.1,38.6 9,38.8 8.8,38.8L8.7,38.8C8.2,38.8 7.7,37.9 7.7,37.9C7.6,37.7 7.4,37.4 7.3,37.2L7.2,37C5.9,34.2 7,30.3 7,30.3C7.5,28.4 8.4,26.5 9.5,24.9C10.2,23.9 11,22.9 11.8,21.9L12.8,22.9L17.5,27.7C17.7,27.9 17.7,28.2 17.5,28.4L12.6,33.9L10.8,35.9ZM21.3,49.7C17.3,49.7 14,46.4 14.1,42.4C14.1,40.6 14.8,38.9 15.9,37.6C17.4,35.8 19.3,34 21.4,31.6C23.8,34.2 25.4,35.9 26.9,37.9C27,38 27.1,38.2 27.2,38.4C28,39.6 28.5,41 28.5,42.5C28.6,46.5 25.3,49.7 21.3,49.7ZM35,38.1C34.9,38.4 34.6,38.6 34.3,38.7L34.2,38.7C33.9,38.6 33.7,38.4 33.5,38.2C32.2,36.3 30.8,34.5 29.2,32.9L27.3,30.9L20.9,24.3C19.6,23.1 18.3,21.7 17.1,20.4C17.1,20.3 17,20.3 17,20.3C16.8,20 16.6,19.7 16.5,19.3L16.5,19.1C16.3,18 16.7,16.9 17.5,16.1C18.7,14.9 20,13.6 21.2,12.3C22.5,13.7 23.9,15.1 25.3,16.5C28.1,19.1 30.6,22 32.9,25.1C34.8,27.8 35.8,30.9 35.8,34.2C35.6,35.4 35.4,36.8 35,38.1Z" style="fill:rgb(0,167,225);fill-rule:nonzero;"/>
            </g>
        </g>
    </g>
</svg>
