<?xml version="1.0" encoding="utf-8"?>
<!-- Generator: Adobe Illustrator 21.0.0, SVG Export Plug-In . SVG Version: 6.00 Build 0)  -->
<svg version="1.1" id="Layer_1" xmlns="http://www.w3.org/2000/svg" xmlns:xlink="http://www.w3.org/1999/xlink" x="0px" y="0px" width="32px" height="32px"
	 viewBox="0 0 32 32" style="enable-background:new 0 0 32 32;" xml:space="preserve">
<g>
	<g>
		<path d="M27.7,3C28.4,3,29,3.7,29,4.4v15c0,0.8-0.6,1.4-1.3,1.4H17.1h-1l-0.8,0.6l-6.4,4.7v-2.3v-3h-3H4.3c-0.7,0-1.3-0.7-1.3-1.4
			v-15C3,3.7,3.6,3,4.3,3H27.7 M27.7,0H4.3C2,0,0,2,0,4.4v15c0,2.4,1.9,4.4,4.3,4.4h1.5V32l11.2-8.2h10.6c2.4,0,4.3-2,4.3-4.4v-15
			C32,2,30.1,0,27.7,0L27.7,0z"/>
	</g>
</g>
</svg>
