<?xml version="1.0" encoding="utf-8"?>
<!-- Generator: Adobe Illustrator 21.0.0, SVG Export Plug-In . SVG Version: 6.00 Build 0)  -->
<svg version="1.1" id="Capa_1" xmlns="http://www.w3.org/2000/svg" xmlns:xlink="http://www.w3.org/1999/xlink" x="0px" y="0px" width="32px" height="32px"
	 viewBox="0 0 27 27" style="enable-background:new 0 0 27 27;" xml:space="preserve">
<g>
	<path d="M3.7,24.9c0,0,0,0.6,0.6,0.6c0.7,0,6.8,0,6.8,0l0-5.6c0,0-0.1-0.9,0.8-0.9h2.8c1.1,0,1,0.9,1,0.9l0,5.6c0,0,5.8,0,6.7,0
		c0.7,0,0.7-0.8,0.7-0.8V14.4l-9.4-8.4l-10,8.4C3.7,14.4,3.7,24.9,3.7,24.9z"/>
	<polygon points="21.1,2.6 18.5,2.6 18.5,5.8 21.1,8.6 	"/>
	<polygon points="27,15.9 13.6,1.7 13.6,1.7 13.6,1.7 0,15.3 1.4,16.7 13.7,4.4 25.6,17.2 	"/>
</g>
</svg>
